<?xml version="1.0" standalone="no"?>
<!DOCTYPE svg PUBLIC "-//W3C//DTD SVG 20010904//EN"
 "http://www.w3.org/TR/2001/REC-SVG-20010904/DTD/svg10.dtd">
<svg version="1.0" xmlns="http://www.w3.org/2000/svg"
 width="500.000000pt" height="109.000000pt" viewBox="0 0 500.000000 109.000000"
 preserveAspectRatio="xMidYMid meet">

<g transform="translate(0.000000,109.000000) scale(0.100000,-0.100000)"
fill="#ffffff" stroke="none">
<path d="M505 1015 c-67 -66 20 -171 104 -125 31 16 46 65 31 100 -23 56 -92
69 -135 25z"/>
<path d="M2760 575 c0 -179 0 -328 0 -332 0 -5 20 -9 45 -11 42 -3 45 -2 45
22 0 15 2 26 4 26 2 0 30 -12 62 -27 51 -24 71 -28 149 -28 98 1 143 15 191
63 52 53 68 99 69 197 0 107 -13 150 -62 199 -73 73 -240 88 -351 32 l-52 -26
0 105 0 105 -50 0 -50 0 0 -325z m404 52 c43 -33 60 -82 54 -158 -5 -63 -23
-97 -72 -133 -23 -17 -42 -21 -109 -21 -72 0 -88 4 -129 28 l-48 28 0 113 c0
111 1 114 26 131 52 34 98 45 171 41 59 -2 78 -8 107 -29z"/>
<path d="M141 804 c-27 -34 -27 -74 0 -108 53 -67 169 0 138 81 -14 37 -38 52
-81 53 -28 0 -41 -6 -57 -26z"/>
<path d="M882 823 c-7 -3 -19 -18 -28 -35 -12 -24 -13 -36 -4 -64 13 -40 35
-54 84 -54 68 0 101 86 51 135 -23 24 -69 32 -103 18z"/>
<path d="M2392 734 c-29 -7 -62 -18 -72 -24 -26 -14 -30 -13 -30 10 0 18 -7
20 -55 20 l-55 0 0 -255 0 -255 55 0 55 0 0 189 0 189 58 20 c31 11 77 23 101
25 52 6 57 11 65 60 l7 37 -38 -1 c-21 0 -62 -7 -91 -15z"/>
<path d="M3727 739 c-120 -28 -180 -111 -180 -250 -1 -143 68 -232 202 -260
66 -14 225 -6 291 13 43 13 45 15 48 57 3 37 1 42 -15 37 -83 -26 -248 -34
-315 -16 -44 12 -98 71 -98 105 l0 25 226 0 227 0 -5 73 c-8 120 -53 182 -155
213 -51 15 -167 17 -226 3z m197 -93 c86 -36 104 -138 21 -121 -11 2 -80 4
-152 4 -120 1 -133 3 -133 19 0 30 39 83 73 97 41 18 148 19 191 1z"/>
<path d="M1800 550 l0 -190 -37 -16 c-103 -43 -229 -40 -275 7 -28 27 -28 28
-28 168 l0 141 -55 0 -55 0 0 -142 c0 -79 5 -160 10 -180 13 -46 67 -94 122
-109 65 -17 182 -7 256 23 l62 26 0 -24 c0 -22 4 -24 55 -24 l55 0 0 255 0
255 -55 0 -55 0 0 -190z"/>
<path d="M4321 713 c51 -57 175 -199 188 -215 11 -15 0 -31 -98 -140 l-111
-123 67 -3 66 -3 51 58 c28 32 63 71 79 88 l27 30 28 -30 c15 -17 50 -56 78
-88 l51 -58 66 3 65 3 -109 124 -110 124 24 26 c12 14 47 53 77 86 l55 60 -65
3 -65 3 -43 -45 c-24 -26 -47 -46 -52 -46 -4 0 -41 38 -82 85 l-73 85 -69 0
-70 0 25 -27z"/>
<path d="M141 384 c-28 -36 -27 -79 4 -109 62 -62 162 2 134 85 -13 36 -36 50
-83 50 -25 0 -40 -7 -55 -26z"/>
<path d="M878 400 c-9 -6 -22 -26 -28 -44 -28 -85 72 -145 135 -81 51 50 17
135 -53 135 -20 0 -45 -5 -54 -10z"/>
<path d="M505 175 c-65 -64 11 -163 100 -129 25 10 47 62 40 95 -13 60 -95 80
-140 34z"/>
</g>
</svg>
