<?xml version="1.0" encoding="UTF-8"?>
<svg width="24" height="24" viewBox="0 0 24 24" fill="none" xmlns="http://www.w3.org/2000/svg">
    <!-- Money bag body -->
    <path d="M12 3C12 3 9 2 9 4C9 6 12 7 12 7C12 7 15 6 15 4C15 2 12 3 12 3Z" fill="#FEE2E2" stroke="#E11D48" stroke-width="2" stroke-linecap="round" stroke-linejoin="round"/>
    <path d="M7 7H17C18.1046 7 19 7.89543 19 9V19C19 20.1046 18.1046 21 17 21H7C5.89543 21 5 20.1046 5 19V9C5 7.89543 5.89543 7 7 7Z" fill="#FEE2E2" stroke="#E11D48" stroke-width="2" stroke-linecap="round" stroke-linejoin="round"/>
    <!-- Dollar sign -->
    <path d="M12 11V17" stroke="#E11D48" stroke-width="2" stroke-linecap="round"/>
    <path d="M10 14H14" stroke="#E11D48" stroke-width="2" stroke-linecap="round"/>
    <!-- Decorative lines -->
    <path d="M8 10L9 11" stroke="#E11D48" stroke-width="2" stroke-linecap="round"/>
    <path d="M16 10L15 11" stroke="#E11D48" stroke-width="2" stroke-linecap="round"/>
</svg> 