<?xml version="1.0" encoding="UTF-8"?>
<svg width="24" height="24" viewBox="0 0 24 24" fill="none" xmlns="http://www.w3.org/2000/svg">
    <!-- Globe circle -->
    <circle cx="12" cy="12" r="9" stroke="currentColor" stroke-width="2"/>
    <!-- Latitude lines -->
    <path d="M3 12H21" stroke="currentColor" stroke-width="2"/>
    <path d="M12 3C14.5013 4.73835 15.9228 7.64243 15.9228 10.7647C15.9228 13.887 14.5013 16.7911 12 18.5294C9.49872 16.7911 8.07725 13.887 8.07725 10.7647C8.07725 7.64243 9.49872 4.73835 12 3Z" stroke="currentColor" stroke-width="2"/>
    <!-- Longitude lines -->
    <path d="M12 3V21" stroke="currentColor" stroke-width="2"/>
    <path d="M3 12C4.73835 9.49872 7.64243 8.07725 10.7647 8.07725C13.887 8.07725 16.7911 9.49872 18.5294 12C16.7911 14.5013 13.887 15.9228 10.7647 15.9228C7.64243 15.9228 4.73835 14.5013 3 12Z" stroke="currentColor" stroke-width="2"/>
</svg> 